<?xml version="1.0" encoding="utf-8"?>
<!-- Svg Vector Icons : http://www.onlinewebfonts.com/icon -->
<svg version="1.1" xmlns="http://www.w3.org/2000/svg" xmlns:xlink="http://www.w3.org/1999/xlink" x="0px" y="0px" viewBox="0 0 1000 1000" enable-background="new 0 0 1000 1000" xml:space="preserve">
    <g>
        <g transform="translate(0.000000,512.000000) scale(0.100000,-0.100000)">
            <path d="M3161.1,4983.6c-201-68.9-344.7-210.6-419.3-411.7c-34.5-93.8-36.4-208.7-36.4-3802.7v-3705.1l46-114.9c55.5-135.9,199.1-287.2,331.3-350.4c67-30.6,101.5-63.2,128.3-116.8c74.7-145.5,227.9-231.7,407.9-231.7c47.9,0,266.1,21.1,486.3,47.9c505.5,59.3,1120.1,114.9,1673.5,153.2c434.7,28.7,1610.3,70.8,1623.7,59.4c9.6-9.6,174.3,34.5-2073.7-568.7c-2177.1-582.1-2094.8-564.9-2265.2-478.7c-84.3,42.1-187.7,153.2-216.4,229.8c-11.5,26.8-442.3,1625.6-959.3,3553.8C873,3040.1,920.8,2833.3,1008.9,3003.8c57.4,114.9,176.2,210.6,302.5,247c61.3,17.2,327.4,90,589.7,160.8c430.8,114.9,480.6,132.1,507.4,178.1c24.9,44,24.9,53.6-7.7,88.1c-21.1,23-51.7,40.2-68.9,40.2c-19.1,0-291-68.9-605.1-153.2c-612.7-166.6-698.9-201-811.9-344.7c-84.2-107.2-137.9-239.3-149.4-373.4c-7.7-109.1,59.4-373.4,934.4-3640c517-1935.8,959.3-3561.5,980.4-3611.3c46-109.1,212.5-270,331.3-323.6c178.1-78.5,283.4-72.8,739.1,49.8c224,59.3,1338.4,358.1,2473.9,662.5l2064.1,553.4h208.7c164.7,0,231.7,7.7,315.9,40.2c139.8,51.7,298.7,199.2,367.6,338.9l53.6,109.2V769.2v3743.4l-53.6,114.9c-88.1,187.6-222.1,304.4-415.5,361.9c-91.9,26.8-394.4,30.6-2803.2,30.6C3413.9,5018.1,3255,5016.2,3161.1,4983.6z M8809.7,4765.3c103.4-61.3,195.3-176.2,224-281.5c13.4-47.9,17.2-1325,15.3-3745.3l-5.7-3674.4l-42.1-78.5c-53.6-99.6-151.3-185.7-256.6-226c-76.6-28.7-317.9-30.6-2805.1-26.8l-2720.9,5.7l-93.8,57.5c-57.4,36.4-114.9,93.8-151.3,151.3l-57.4,93.8l-5.7,3697.4c-3.8,2653.9,0,3718.5,15.3,3770.2c36.4,126.4,178.1,256.6,325.5,302.5c26.8,7.7,1267.6,13.4,2757.3,11.5l2709.4-3.8L8809.7,4765.3z" />
            <path d="M3456,4460.9c-15.3-24.9-78.5-172.3-139.8-329.3c-88.1-224-120.6-287.2-157-300.6c-70.8-26.8-28.7-55.5,82.3-55.5c105.3,0,160.8,32.6,88.1,51.7c-46,11.5-49.8,32.5-19.2,118.7c19.2,57.4,24.9,59.4,124.5,59.4c101.5,0,103.4-1.9,132.1-70.9c26.8-65.1,26.8-74.7,0-93.8c-63.2-46-30.6-65.1,113-65.1c147.4,0,201.1,24.9,120.6,55.5c-40.2,15.3-67,72.8-166.6,344.7c-67,180-128.3,327.4-135.9,327.4C3488.5,4503,3469.4,4483.9,3456,4460.9z M3488.5,4169.9c17.2-51.7,30.6-97.7,30.6-101.5c0-3.8-34.5-5.7-76.6-5.7c-47.9,0-76.6,9.6-76.6,24.9c0,44,65.1,204.9,78.5,191.5C3450.2,4269.4,3471.3,4221.5,3488.5,4169.9z" />
            <path d="M3366,3413.5c-137.9-134-172.3-187.7-172.3-273.8c0-114.9,116.8-199.1,206.8-151.3c57.4,30.6,61.3,26.8,40.2-40.2c-24.9-90-23-91.9,42.1-91.9c49.8,0,55.5,5.7,47.9,38.3c-5.7,21.1-17.2,55.5-23,76.6c-11.5,44-1.9,46,53.6,17.2c90-47.9,206.8,36.4,206.8,151.3c-1.9,93.8-24.9,130.2-172.3,264.2l-124.5,113L3366,3413.5z" />
            <path d="M5885.8,2569.1c-130.2-197.2-331.2-398.3-802.3-808c-430.8-373.4-524.7-476.8-626.1-681.7C4331,822.8,4287,459,4352.1,204.4c164.7-626.1,915.3-867.4,1422.7-455.7l82.3,67l-11.5-72.7c-44-258.5-170.4-712.3-233.6-838.7l-28.7-55.5l72.8,13.4c176.2,28.7,375.3,34.5,522.7,13.4c88.1-13.4,162.8-21,166.6-17.2c3.8,3.8-19.1,72.8-49.8,151.3c-65.1,166.6-164.7,551.5-183.8,706.5l-13.4,105.3l65.1-59.3c195.3-180,511.3-260.4,781.2-197.2c206.8,47.9,448,218.3,547.6,390.6c101.5,170.4,130.2,289.1,130.2,536.1c1.9,208.7-3.8,247-57.4,404c-116.8,337-178.1,413.6-714.2,869.3c-415.5,352.3-731.4,675.9-815.7,831l-59.4,109.1L5885.8,2569.1z" />
            <path d="M8409.5-1331.3c3.8-19.2,13.4-55.5,21.1-78.5c11.5-42.1,9.6-44-32.6-30.7c-157,51.7-281.5-99.6-204.9-247c13.4-23,78.5-93.8,147.4-158.9l126.4-114.9l139.8,135.9c128.3,126.4,139.8,143.6,139.8,216.4c0,42.1-5.7,91.9-11.5,109.1c-19.2,49.8-118.7,84.3-185.7,65.1l-55.5-15.3l11.5,74.7c11.5,74.7,11.5,76.6-47.9,76.6C8411.4-1298.7,8401.8-1306.4,8409.5-1331.3z" />
            <path d="M8147.2-2288.7c47.9-42.1,82.3-114.9,170.4-356.1c78.5-214.5,116.8-300.6,137.9-296.8c15.3,3.8,82.3,143.6,153.2,321.7c97.7,239.3,137.9,319.8,172.3,335.1c72.8,32.6,46,47.9-84.2,47.9c-78.5,0-120.6-7.7-113-19.1c5.7-9.6,24.9-19.2,40.2-19.2c32.6,0,34.5-47.9,5.8-132.1c-19.2-55.5-24.9-59.4-122.6-59.4h-101.5l-28.7,84.3c-28.7,82.3-28.7,86.2,11.5,114.9c38.3,26.8,28.7,28.7-130.2,28.7l-170.4,1.9L8147.2-2288.7z M8549.3-2629.5c-21.1-59.4-44-99.6-51.7-91.9c-7.7,7.6-26.8,55.5-44,107.2l-30.6,90h82.3h84.2L8549.3-2629.5z" />
            <path d="M1566.1,2967.4c-36.4-9.6-99.6-26.8-137.9-36.4c-86.2-21.1-93.8-49.8-19.1-59.4c49.8-5.7,53.6-15.3,124.5-273.8c84.3-314,93.8-411.7,44-465.3c-24.9-28.7-26.8-42.1-9.6-53.6c36.4-21.1,147.4,111.1,162.8,197.2c11.5,55.5-1.9,137.9-57.4,348.5c-63.2,248.9-67,277.6-40.2,308.3C1686.8,2992.3,1675.3,2998,1566.1,2967.4z" />
            <path d="M1738.5,1998.5c0-9.6-38.3-76.6-86.2-149.4c-103.4-160.8-116.8-266.2-38.3-342.7c53.6-55.5,162.8-65.1,201-19.1c36.4,44,63.2,11.5,51.7-61.3c-9.6-53.6-5.8-65.1,17.2-55.5c17.2,5.8,47.9,11.5,68.9,11.5c36.4,0,36.4,0-1.9,65.1c-23,34.5-40.2,67-40.2,72.8c0,3.8,30.6,7.7,68.9,7.7c78.5,0,160.8,74.7,160.8,145.5c0,97.7-57.4,164.7-216.4,248.9C1728.9,2025.3,1738.5,2019.6,1738.5,1998.5z" />
        </g>
    </g>
</svg>